<svg width="45" height="28" viewBox="0 0 45 28" fill="none" xmlns="http://www.w3.org/2000/svg">
<path d="M27.967 0.634771C20.242 0.631882 12.182 1.88845 4.04702 3.51839C3.01402 3.6686 2.00602 4.15678 1.47302 4.76052C0.983022 5.32958 0.805022 5.90082 0.652022 6.4995C-0.137978 9.69726 -0.0419776 12.8372 0.122022 16.3166C0.158022 17.1132 0.322022 18.0571 0.837022 18.6312C1.37502 19.2111 2.29702 19.5794 3.39802 19.7C4.80463 19.849 6.21564 19.9754 7.63002 20.0791L7.31802 26.3606C7.27002 26.8603 7.60802 27.2755 8.02802 27.5146C8.40402 27.7211 8.82302 27.8128 9.25302 27.8359C10.113 27.8829 11.122 27.6171 11.623 26.9282C13.818 23.8777 15.195 22.5309 17.94 20.5045C25.098 20.6316 31.347 20.3442 38.422 19.9665C40.923 19.9195 42.64 18.4427 43.094 17.2634C44.451 14.2072 44.662 10.4346 44.806 6.62082C44.867 5.10932 44.141 3.62527 42.856 2.84099C41.634 2.12533 40.154 1.86607 38.798 1.60031C35.031 0.9843 31.263 0.653547 27.967 0.634771ZM38.257 3.02515C39.615 3.29163 40.812 3.548 41.567 3.99069C42.827 4.95767 42.785 5.60112 42.767 6.64465C42.625 10.3436 42.379 13.9335 41.223 16.6539C40.725 17.6685 39.857 18.3907 38.217 18.4998C31.009 18.8847 24.755 19.1822 17.51 19.0334C17.369 19.0302 17.2285 19.0479 17.0972 19.0854C16.966 19.1229 16.8468 19.1794 16.747 19.2515C13.703 21.4715 12.146 23.014 9.82602 26.2392C9.77202 26.3129 9.65502 26.3577 9.51102 26.3656C9.41402 26.362 9.37502 26.3078 9.36902 26.2587L9.68302 19.4472C9.70202 19.0797 9.28202 18.7287 8.77602 18.689C7.08414 18.5723 5.39687 18.423 3.71602 18.2412C2.99002 18.1611 2.72202 18.0174 2.52302 17.8036C2.17702 17.2078 2.18502 16.8395 2.15802 16.2668C1.99602 12.8185 1.91602 9.80486 2.64902 6.80642C2.71702 6.36301 2.94702 5.90949 3.19102 5.53035C3.59502 5.07394 4.21402 5.00678 4.83502 4.88256C12.791 3.29596 20.575 2.10944 27.903 2.10583C31.495 2.19971 35.267 2.45969 38.257 3.02515V3.02515ZM10.778 8.86749C9.68202 9.81569 9.79102 11.1033 10.638 11.9656C11.08 12.4169 11.77 12.7802 12.61 12.8625C13.701 12.9275 14.393 12.6083 15.14 12.2415C16.493 11.3922 16.63 9.9103 15.601 8.84004C15.077 8.29481 14.239 7.96766 13.383 7.94456C12.211 7.95322 11.415 8.33091 10.778 8.86676V8.86749ZM22.634 8.09332C21.542 8.1186 20.659 8.66456 20.12 9.25385C19.503 9.92763 19.143 10.7711 19.642 11.598C20.602 13.1889 23.919 13.1694 25.242 11.5525C25.852 10.8072 25.696 9.96013 25.242 9.34556C24.79 8.73172 24.106 8.23126 23.111 8.11643C22.9534 8.09771 22.7937 8.08998 22.634 8.09332V8.09332ZM32.259 8.24281C31.919 8.23703 31.569 8.26014 31.241 8.32297C29.929 8.57573 28.812 9.55354 28.981 10.8051C29.067 11.4348 29.468 12.0486 30.191 12.4718C30.914 12.8943 31.964 13.0835 33.071 12.9196C34.343 12.7318 35.131 11.9916 35.394 11.2766C35.657 10.5617 35.591 9.83302 34.98 9.24229C34.6621 8.937 34.2518 8.68824 33.7803 8.51501C33.3089 8.34178 32.7889 8.24868 32.26 8.24281H32.259ZM13.294 9.41489C13.539 9.41633 13.732 9.47266 13.931 9.6792C14.376 10.1428 14.252 10.8455 13.803 11.1271C13.356 11.4088 13.077 11.4333 12.881 11.4146C12.685 11.3951 12.486 11.2976 12.308 11.1156C11.968 10.769 11.868 10.2086 12.315 9.80847C12.553 9.58027 12.99 9.438 13.295 9.41489H13.294ZM22.777 9.57593C22.815 9.58027 23.241 9.75864 23.445 10.0352C23.649 10.3118 23.687 10.5689 23.493 10.8051C22.916 11.5099 21.689 11.3192 21.503 11.0123C21.433 10.8953 21.486 10.4252 21.823 10.0591C22.158 9.69148 22.58 9.55354 22.777 9.57521V9.57593ZM33.341 10.1161C33.403 10.1761 33.554 10.5783 33.437 10.8975C33.319 11.2167 33.127 11.4138 32.657 11.4832C32.055 11.5727 31.717 11.4832 31.464 11.3337C31.21 11.1856 31.039 10.9351 31.002 10.6671C30.912 10.0027 31.242 9.84891 31.766 9.74781C32.376 9.63948 33.066 9.82869 33.341 10.1161V10.1161Z" fill="white"/>
</svg>
